<svg width="600" height="400" viewBox="0 0 600 400" xmlns="http://www.w3.org/2000/svg">
  <defs>
    <linearGradient id="background" x1="0%" y1="0%" x2="100%" y2="100%">
      <stop offset="0%" style="stop-color:#F5EFE7;stop-opacity:1" />
      <stop offset="100%" style="stop-color:#E8DCC6;stop-opacity:1" />
    </linearGradient>
    <radialGradient id="shadow" cx="50%" cy="50%" r="50%">
      <stop offset="0%" style="stop-color:#000000;stop-opacity:0.3" />
      <stop offset="100%" style="stop-color:#000000;stop-opacity:0" />
    </radialGradient>
  </defs>
  
  <!-- Background -->
  <rect width="600" height="400" fill="url(#background)"/>
  
  <!-- Main Crystal -->
  <path d="M 250 150 L 350 150 L 350 250 L 250 250 Z" fill="#F5EFE7" stroke="#8E7F74" stroke-width="3"/>
  
  <!-- Crystal Grid -->
  <line x1="250" y1="150" x2="350" y2="150" stroke="#8E7F74" stroke-width="1"/>
  <line x1="250" y1="170" x2="350" y2="170" stroke="#8E7F74" stroke-width="1"/>
  <line x1="250" y1="190" x2="350" y2="190" stroke="#8E7F74" stroke-width="1"/>
  <line x1="250" y1="210" x2="350" y2="210" stroke="#8E7F74" stroke-width="1"/>
  <line x1="250" y1="230" x2="350" y2="230" stroke="#8E7F74" stroke-width="1"/>
  <line x1="250" y1="250" x2="350" y2="250" stroke="#8E7F74" stroke-width="1"/>
  
  <line x1="250" y1="150" x2="250" y2="250" stroke="#8E7F74" stroke-width="1"/>
  <line x1="270" y1="150" x2="270" y2="250" stroke="#8E7F74" stroke-width="1"/>
  <line x1="290" y1="150" x2="290" y2="250" stroke="#8E7F74" stroke-width="1"/>
  <line x1="310" y1="150" x2="310" y2="250" stroke="#8E7F74" stroke-width="1"/>
  <line x1="330" y1="150" x2="330" y2="250" stroke="#8E7F74" stroke-width="1"/>
  <line x1="350" y1="150" x2="350" y2="250" stroke="#8E7F74" stroke-width="1"/>
  
  <!-- Side Crystals -->
  <path d="M 200 170 L 240 170 L 240 210 L 200 210 Z" fill="#F5EFE7" stroke="#8E7F74" stroke-width="2"/>
  <path d="M 360 170 L 400 170 L 400 210 L 360 210 Z" fill="#F5EFE7" stroke="#8E7F74" stroke-width="2"/>
  
  <!-- Shadow -->
  <ellipse cx="300" cy="260" rx="55" ry="15" fill="url(#shadow)"/>
  
  <!-- Text -->
  <text x="300" y="320" text-anchor="middle" font-family="Arial, sans-serif" font-size="24" font-weight="bold" fill="#004225">GLUCOSAMIN</text>
  <text x="300" y="350" text-anchor="middle" font-family="Arial, sans-serif" font-size="16" fill="#8E7F74">Gelenk-Unterstützung finden</text>
</svg>
