<svg width="600" height="400" viewBox="0 0 600 400" xmlns="http://www.w3.org/2000/svg">
  <defs>
    <linearGradient id="background" x1="0%" y1="0%" x2="100%" y2="100%">
      <stop offset="0%" style="stop-color:#F5EFE7;stop-opacity:1" />
      <stop offset="100%" style="stop-color:#E8DCC6;stop-opacity:1" />
    </linearGradient>
    <radialGradient id="shadow" cx="50%" cy="50%" r="50%">
      <stop offset="0%" style="stop-color:#000000;stop-opacity:0.3" />
      <stop offset="100%" style="stop-color:#000000;stop-opacity:0" />
    </radialGradient>
  </defs>
  
  <!-- Background -->
  <rect width="600" height="400" fill="url(#background)"/>
  
  <!-- L Theanine Molecules -->
  <!-- Main Molecule -->
  <circle cx="200" cy="180" r="20" fill="#B46A34" stroke="#004225" stroke-width="2"/>
  <circle cx="300" cy="180" r="20" fill="#B46A34" stroke="#004225" stroke-width="2"/>
  <circle cx="400" cy="180" r="20" fill="#B46A34" stroke="#004225" stroke-width="2"/>
  
  <!-- Connecting Lines -->
  <line x1="220" y1="180" x2="280" y2="180" stroke="#004225" stroke-width="3"/>
  <line x1="320" y1="180" x2="380" y2="180" stroke="#004225" stroke-width="3"/>
  
  <!-- Nitrogen Atoms -->
  <circle cx="200" cy="220" r="15" fill="#4A90D4" stroke="#004225" stroke-width="2"/>
  <circle cx="300" cy="220" r="15" fill="#4A90D4" stroke="#004225" stroke-width="2"/>
  <circle cx="400" cy="220" r="15" fill="#4A90D4" stroke="#004225" stroke-width="2"/>
  
  <!-- Carbon Atoms -->
  <circle cx="200" cy="240" r="12" fill="#2A2E2F" stroke="#004225" stroke-width="2"/>
  <circle cx="300" cy="240" r="12" fill="#2A2E2F" stroke="#004225" stroke-width="2"/>
  <circle cx="400" cy="240" r="12" fill="#2A2E2F" stroke="#004225" stroke-width="2"/>
  
  <!-- Oxygen Atoms -->
  <circle cx="200" cy="260" r="10" fill="#FF6B6B" stroke="#004225" stroke-width="2"/>
  <circle cx="300" cy="260" r="10" fill="#FF6B6B" stroke="#004225" stroke-width="2"/>
  <circle cx="400" cy="260" r="10" fill="#FF6B6B" stroke="#004225" stroke-width="2"/>
  
  <!-- Shadow -->
  <ellipse cx="300" cy="300" rx="100" ry="20" fill="url(#shadow)"/>
  
  <!-- Text -->
  <text x="300" y="340" text-anchor="middle" font-family="Arial, sans-serif" font-size="24" font-weight="bold" fill="#004225">L THEANIN</text>
  <text x="300" y="370" text-anchor="middle" font-family="Arial, sans-serif" font-size="16" fill="#8E7F74">Natürliche Beruhigung</text>
</svg>
