<svg width="400" height="300" viewBox="0 0 400 300" xmlns="http://www.w3.org/2000/svg">
  <defs>
    <linearGradient id="bg" x1="0%" y1="0%" x2="100%" y2="100%">
      <stop offset="0%" style="stop-color:#f0f8ff;stop-opacity:1" />
      <stop offset="100%" style="stop-color:#e6f3ff;stop-opacity:1" />
    </linearGradient>
    <linearGradient id="dog" x1="0%" y1="0%" x2="100%" y2="100%">
      <stop offset="0%" style="stop-color:#8b4513;stop-opacity:1" />
      <stop offset="100%" style="stop-color:#654321;stop-opacity:1" />
    </linearGradient>
  </defs>
  
  <!-- Background -->
  <rect width="400" height="300" fill="url(#bg)"/>
  
  <!-- Dog with natural remedies -->
  <g transform="translate(200, 150)">
    <!-- Body -->
    <ellipse cx="0" cy="20" rx="50" ry="30" fill="url(#dog)"/>
    
    <!-- Head -->
    <ellipse cx="0" cy="-20" rx="30" ry="25" fill="url(#dog)"/>
    
    <!-- Ears -->
    <ellipse cx="-20" cy="-35" rx="8" ry="15" fill="url(#dog)" transform="rotate(-20)"/>
    <ellipse cx="20" cy="-35" rx="8" ry="15" fill="url(#dog)" transform="rotate(20)"/>
    
    <!-- Eyes (relaxed) -->
    <circle cx="-10" cy="-25" r="3" fill="#2c1810"/>
    <circle cx="10" cy="-25" r="3" fill="#2c1810"/>
    
    <!-- Nose -->
    <ellipse cx="0" cy="-15" rx="2" ry="1.5" fill="#2c1810"/>
    
    <!-- Mouth (peaceful) -->
    <path d="M -5 -10 Q 0 -7 5 -10" stroke="#2c1810" stroke-width="1.5" fill="none"/>
    
    <!-- Legs -->
    <rect x="-18" y="45" width="6" height="20" fill="url(#dog)"/>
    <rect x="-3" y="45" width="6" height="20" fill="url(#dog)"/>
    <rect x="3" y="45" width="6" height="20" fill="url(#dog)"/>
    <rect x="18" y="45" width="6" height="20" fill="url(#dog)"/>
    
    <!-- Tail (relaxed) -->
    <ellipse cx="35" cy="5" rx="10" ry="5" fill="url(#dog)" transform="rotate(15)"/>
  </g>
  
  <!-- Natural remedy icons -->
  <g transform="translate(80, 80)">
    <circle cx="0" cy="0" r="20" fill="#90ee90" stroke="#228b22" stroke-width="2"/>
    <text x="0" y="5" text-anchor="middle" font-family="Arial, sans-serif" font-size="16" fill="#2c5f2d">🌿</text>
  </g>
  
  <g transform="translate(320, 100)">
    <circle cx="0" cy="0" r="20" fill="#ffd700" stroke="#daa520" stroke-width="2"/>
    <text x="0" y="5" text-anchor="middle" font-family="Arial, sans-serif" font-size="16" fill="#2c5f2d">💊</text>
  </g>
  
  <g transform="translate(100, 200)">
    <circle cx="0" cy="0" r="20" fill="#87ceeb" stroke="#4682b4" stroke-width="2"/>
    <text x="0" y="5" text-anchor="middle" font-family="Arial, sans-serif" font-size="16" fill="#2c5f2d">🧘</text>
  </g>
  
  <g transform="translate(300, 200)">
    <circle cx="0" cy="0" r="20" fill="#dda0dd" stroke="#9370db" stroke-width="2"/>
    <text x="0" y="5" text-anchor="middle" font-family="Arial, sans-serif" font-size="16" fill="#2c5f2d">💆</text>
  </g>
  
  <!-- Text overlay -->
  <text x="200" y="250" text-anchor="middle" font-family="Arial, sans-serif" font-size="16" fill="#2c5f2d" font-weight="bold">
    Natürliche Schmerzlinderung
  </text>
</svg>
